<?xml version="1.0" standalone="no"?>
<!DOCTYPE svg PUBLIC "-//W3C//DTD SVG 20010904//EN"
 "http://www.w3.org/TR/2001/REC-SVG-20010904/DTD/svg10.dtd">
<svg version="1.0" xmlns="http://www.w3.org/2000/svg"
 width="540.000000pt" height="540.000000pt" viewBox="0 0 540.000000 540.000000"
 preserveAspectRatio="xMidYMid meet">
<metadata>
Created by potrace 1.14, written by Peter Selinger 2001-2017
</metadata>
<g transform="translate(0.000000,540.000000) scale(0.100000,-0.100000)"
fill="#000000" stroke="none">
<path d="M2518 5395 c-1 -1 -36 -5 -77 -9 -64 -5 -118 -13 -236 -32 -148 -24
-396 -99 -565 -171 -191 -82 -434 -223 -574 -334 -111 -87 -162 -133 -271
-243 -72 -72 -149 -153 -170 -180 -22 -27 -47 -56 -55 -66 -8 -10 -22 -28 -30
-40 -8 -12 -22 -32 -31 -44 -34 -45 -89 -126 -89 -130 0 -3 -13 -24 -29 -48
-30 -44 -145 -268 -170 -329 -7 -19 -19 -47 -26 -64 -89 -211 -156 -487 -183
-745 -3 -36 -6 -153 -6 -260 0 -215 6 -304 35 -465 9 -53 15 -83 35 -170 3
-11 7 -31 10 -44 3 -13 18 -67 35 -120 131 -415 342 -769 643 -1079 435 -448
977 -719 1606 -803 151 -20 507 -19 660 2 178 24 185 26 325 60 776 194 1427
723 1775 1443 96 199 190 473 215 626 3 19 10 60 16 90 37 208 47 607 20 790
-6 41 -14 91 -16 110 -5 30 -38 187 -49 230 -114 444 -346 862 -656 1185 -244
254 -490 433 -801 583 -93 45 -294 125 -345 137 -10 3 -68 18 -129 35 -106 29
-245 57 -329 66 -23 2 -57 7 -76 10 -37 6 -456 15 -462 9z"/>
</g>
</svg>
